<?xml version="1.0" encoding="utf-8"?>
<!-- Generator: Adobe Illustrator 26.3.1, SVG Export Plug-In . SVG Version: 6.00 Build 0)  -->
<svg version="1.1" id="Layer_2_00000135686760047382752500000004807292154837476002_"
	 xmlns="http://www.w3.org/2000/svg" xmlns:xlink="http://www.w3.org/1999/xlink" x="0px" y="0px" viewBox="0 0 113 113"
	 style="enable-background:new 0 0 113 113;" xml:space="preserve">
<style type="text/css">
	.st0{fill:#FFFFFF;}
	.st1{enable-background:new    ;}
	.st2{fill:#333333;}
</style>
<rect class="st0" width="113" height="113"/>
<g class="st1">
	<path class="st2" d="M9.7,61.5l23.1-25.2H10.9V24.9h45.7L33.8,50.1h22v11.4H9.7z"/>
	<path class="st2" d="M62.2,61.5v-10h28.9c1.9,0,2.8-0.6,2.8-1.9v-0.1c0-1.3-0.9-1.9-2.8-1.9H62.2v-8.8h28.9c1.9,0,2.8-0.6,2.8-1.9
		v-0.1c0-1.3-0.9-1.9-2.8-1.9H62.2v-10H92c4.8,0,8.2,0.8,10.2,2.5c2,1.7,3,4.4,3,8.1v0.3c0,3.4-1.2,5.9-3.6,7.4
		c2.4,1.5,3.6,3.9,3.6,7.4v0.3c0,3.7-1,6.5-3,8.1c-2,1.7-5.4,2.5-10.2,2.5H62.2z"/>
</g>
<g class="st1">
	<path class="st2" d="M16.1,98.5c-1,0-2-0.1-2.9-0.4c-0.9-0.3-1.7-0.7-2.4-1.2C10.1,96.4,9.5,95.7,9,95c-0.5-0.7-0.8-1.5-1-2.4h4.2
		c0.3,0.7,0.8,1.3,1.6,1.8c0.7,0.4,1.5,0.7,2.4,0.7c0.6,0,1.2-0.1,1.8-0.4c0.6-0.2,1-0.6,1.5-1c0.4-0.4,0.7-0.9,1-1.5
		s0.4-1.2,0.4-1.9v-0.6l-0.1-0.1c-0.3,0.3-0.6,0.6-1,0.9c-0.3,0.3-0.7,0.6-1.1,0.8c-0.4,0.2-0.9,0.4-1.3,0.6c-0.5,0.1-1,0.2-1.5,0.2
		c-1.2,0-2.2-0.2-3.2-0.6c-1-0.4-1.9-1-2.6-1.7C9,89.2,8.4,88.3,8,87.4c-0.4-1-0.6-2-0.6-3.2S7.6,82,8,81c0.4-1,1-1.8,1.8-2.5
		c0.7-0.7,1.6-1.3,2.6-1.7c1-0.4,2.1-0.6,3.2-0.6c0.7,0,1.3,0.1,1.8,0.3s1.1,0.4,1.5,0.6c0.4,0.3,0.8,0.5,1.1,0.9
		c0.3,0.3,0.6,0.6,0.8,1l0.1-0.1v-2.2h3.6v13.8c0,1.2-0.2,2.2-0.6,3.2c-0.4,1-1,1.8-1.8,2.5c-0.8,0.7-1.6,1.3-2.7,1.7
		C18.5,98.3,17.3,98.5,16.1,98.5z M16.1,88.8c0.6,0,1.2-0.1,1.8-0.4s1-0.6,1.5-1c0.4-0.4,0.7-0.9,1-1.5c0.2-0.6,0.4-1.2,0.4-1.8
		c0-0.6-0.1-1.2-0.4-1.8s-0.6-1-1-1.5c-0.4-0.4-0.9-0.7-1.5-1s-1.1-0.4-1.8-0.4s-1.2,0.1-1.8,0.4s-1,0.6-1.5,1
		c-0.4,0.4-0.7,0.9-1,1.5s-0.4,1.1-0.4,1.8c0,0.6,0.1,1.2,0.4,1.8c0.2,0.6,0.6,1,1,1.5c0.4,0.4,0.9,0.7,1.5,1S15.5,88.8,16.1,88.8z"
		/>
	<path class="st2" d="M40.4,90.7L40.4,90.7c-0.3,0.4-0.7,0.7-1,1.1s-0.8,0.7-1.2,0.9c-0.5,0.3-1,0.5-1.5,0.6
		c-0.5,0.2-1.1,0.2-1.8,0.2c-1.1,0-2.2-0.2-3.2-0.7c-1-0.4-1.9-1-2.6-1.8c-0.7-0.8-1.3-1.7-1.8-2.8c-0.4-1.1-0.7-2.2-0.7-3.5
		s0.2-2.4,0.7-3.5c0.4-1.1,1-2,1.8-2.8c0.7-0.8,1.6-1.4,2.6-1.8c1-0.4,2.1-0.7,3.2-0.7c0.6,0,1.2,0.1,1.8,0.2s1,0.4,1.5,0.6
		c0.5,0.3,0.9,0.6,1.2,0.9s0.7,0.7,1,1.1h0.1v-2.4h3.9v16.4h-3.9V90.7z M40.4,84.9c0-0.7-0.1-1.3-0.4-1.9c-0.2-0.6-0.6-1.1-1-1.5
		c-0.4-0.4-0.9-0.8-1.5-1c-0.6-0.3-1.2-0.4-1.9-0.4c-0.7,0-1.3,0.1-1.9,0.4c-0.6,0.3-1.1,0.6-1.5,1c-0.4,0.4-0.8,0.9-1,1.5
		c-0.3,0.6-0.4,1.2-0.4,1.9c0,0.7,0.1,1.3,0.4,1.9c0.3,0.6,0.6,1.1,1,1.5c0.4,0.4,0.9,0.8,1.5,1c0.6,0.3,1.2,0.4,1.9,0.4
		c0.7,0,1.3-0.1,1.9-0.4s1.1-0.6,1.5-1c0.4-0.4,0.8-1,1-1.5C40.3,86.2,40.4,85.6,40.4,84.9z"/>
	<path class="st2" d="M46.9,93.1V76.7h3.7V79h0.1c0.2-0.3,0.4-0.7,0.7-1c0.3-0.3,0.6-0.6,0.9-0.9c0.3-0.3,0.7-0.5,1.2-0.6
		c0.4-0.2,0.9-0.2,1.5-0.2c1.1,0,2,0.3,2.7,0.8c0.7,0.5,1.3,1.2,1.9,2c0.5-0.7,1.2-1.4,2-2c0.8-0.6,1.7-0.9,2.7-0.9
		c0.9,0,1.7,0.2,2.5,0.5c0.8,0.3,1.4,0.8,2,1.4s1,1.3,1.3,2.1c0.3,0.8,0.5,1.7,0.5,2.7v10.2h-4V83c0-0.4-0.1-0.8-0.2-1.1
		c-0.2-0.4-0.4-0.7-0.6-0.9c-0.3-0.3-0.6-0.5-0.9-0.6s-0.7-0.2-1.1-0.2c-0.4,0-0.8,0.1-1.1,0.2c-0.4,0.2-0.7,0.4-0.9,0.6
		c-0.3,0.3-0.5,0.6-0.6,0.9s-0.2,0.7-0.2,1.1v10.2h-3.9V83c0-0.8-0.3-1.5-0.8-2.1s-1.2-0.8-2.1-0.8c-0.4,0-0.8,0.1-1.1,0.2
		c-0.4,0.2-0.7,0.4-0.9,0.6c-0.3,0.3-0.5,0.6-0.6,0.9c-0.2,0.4-0.2,0.7-0.2,1.1v10.2H46.9z"/>
	<path class="st2" d="M90.2,84.9c0,0.3,0,0.6-0.1,0.9c0,0.3-0.1,0.6-0.2,0.9H76.8c0.4,0.9,0.9,1.6,1.7,2.2c0.8,0.6,1.7,0.9,2.8,0.9
		c0.7,0,1.4-0.1,2-0.4c0.6-0.3,1.2-0.7,1.6-1.2h4.4c-0.3,0.8-0.7,1.6-1.2,2.3c-0.5,0.7-1.2,1.2-1.9,1.7c-0.7,0.5-1.5,0.8-2.3,1.1
		c-0.9,0.3-1.7,0.4-2.6,0.4c-1.2,0-2.3-0.2-3.3-0.7c-1.1-0.5-2-1.1-2.9-1.9c-0.8-0.8-1.5-1.7-2-2.8c-0.5-1.1-0.7-2.2-0.7-3.4
		c0-1.2,0.2-2.4,0.7-3.5c0.5-1.1,1.1-2,1.9-2.8c0.8-0.8,1.8-1.4,2.9-1.8s2.2-0.7,3.5-0.7c1.2,0,2.3,0.2,3.4,0.7
		c1.1,0.5,2,1.1,2.8,1.8c0.8,0.8,1.4,1.7,1.9,2.8C90,82.6,90.2,83.7,90.2,84.9z M85.9,83.3c-0.3-1-0.9-1.8-1.7-2.4
		c-0.8-0.6-1.7-0.9-2.8-0.9c-1,0-1.9,0.3-2.8,0.9c-0.8,0.6-1.4,1.4-1.7,2.4H85.9z"/>
	<path class="st2" d="M101.7,81.8c0-0.2-0.1-0.5-0.2-0.7c-0.1-0.3-0.3-0.5-0.6-0.7c-0.2-0.2-0.5-0.4-0.9-0.5
		c-0.4-0.1-0.7-0.2-1.2-0.2c-0.4,0-0.7,0-1,0.1c-0.3,0.1-0.6,0.2-0.9,0.4c-0.2,0.2-0.4,0.4-0.6,0.6s-0.2,0.5-0.2,0.7
		c0,0.4,0.1,0.6,0.4,0.8c0.3,0.1,0.6,0.3,1,0.4l3.5,0.9c0.7,0.2,1.3,0.4,1.9,0.6c0.6,0.2,1.1,0.6,1.6,0.9c0.5,0.4,0.8,0.8,1.1,1.4
		c0.3,0.5,0.4,1.2,0.4,2c0,0.9-0.2,1.6-0.6,2.2c-0.4,0.6-0.9,1.2-1.6,1.6c-0.7,0.4-1.4,0.8-2.3,1c-0.9,0.2-1.8,0.3-2.9,0.3
		c-1,0-1.9-0.1-2.8-0.4c-0.9-0.3-1.6-0.7-2.3-1.1c-0.6-0.5-1.1-1.1-1.5-1.8s-0.6-1.4-0.6-2.2h3.9c0,0.3,0.1,0.5,0.3,0.8
		c0.2,0.3,0.4,0.5,0.7,0.7c0.3,0.2,0.6,0.4,1,0.5c0.4,0.1,0.8,0.2,1.2,0.2c0.9,0,1.6-0.2,2.3-0.5c0.6-0.3,0.9-0.8,0.9-1.3
		c0-0.4-0.1-0.7-0.4-0.8s-0.7-0.3-1.3-0.5l-3.5-0.9c-0.6-0.2-1.3-0.4-1.8-0.7c-0.6-0.3-1.1-0.6-1.5-1c-0.4-0.4-0.8-0.9-1-1.4
		c-0.3-0.5-0.4-1.1-0.4-1.8c0-0.9,0.2-1.6,0.6-2.2c0.4-0.6,0.9-1.2,1.5-1.6s1.4-0.8,2.2-1c0.8-0.2,1.7-0.3,2.7-0.3s1.8,0.1,2.6,0.4
		c0.8,0.3,1.5,0.7,2.1,1.2s1.1,1.1,1.4,1.8c0.3,0.7,0.5,1.4,0.5,2.2H101.7z"/>
</g>
</svg>
