<?xml version="1.0" encoding="utf-8"?>
<!-- Generator: Adobe Illustrator 26.3.1, SVG Export Plug-In . SVG Version: 6.00 Build 0)  -->
<svg version="1.1" id="Layer_2_00000129912395512100747720000003281984785170243257_"
	 xmlns="http://www.w3.org/2000/svg" xmlns:xlink="http://www.w3.org/1999/xlink" x="0px" y="0px" viewBox="0 0 375 85"
	 style="enable-background:new 0 0 375 85;" xml:space="preserve">
<style type="text/css">
	.st0{fill:#333333;}
	.st1{enable-background:new    ;}
	.st2{fill:#FFFFFF;}
</style>
<rect class="st0" width="375" height="85"/>
<g class="st1">
	<path class="st2" d="M27.4,62l23.2-25.2h-22V25.3h45.8L51.6,50.6h22.1V62H27.4z"/>
	<path class="st2" d="M79.2,62V52h29c1.9,0,2.8-0.6,2.8-1.9V50c0-1.3-0.9-1.9-2.8-1.9h-29v-8.8h29c1.9,0,2.8-0.6,2.8-1.9v-0.1
		c0-1.3-0.9-1.9-2.8-1.9h-29v-10h29.9c4.8,0,8.2,0.8,10.2,2.5c2,1.7,3,4.4,3,8.2v0.3c0,3.4-1.2,5.9-3.6,7.4c2.4,1.5,3.6,4,3.6,7.4
		v0.3c0,3.7-1,6.5-3,8.2c-2,1.7-5.4,2.5-10.2,2.5H79.2z"/>
</g>
<g class="st1">
	<path class="st2" d="M134.3,61.3c-1.3,0-2.4-0.4-3.2-1.3c-0.9-0.9-1.3-2-1.3-3.2c0-1.3,0.4-2.4,1.3-3.2c0.9-0.9,2-1.3,3.2-1.3
		c1.3,0,2.4,0.4,3.2,1.3s1.3,2,1.3,3.2c0,1.3-0.4,2.4-1.3,3.2C136.6,60.8,135.5,61.3,134.3,61.3z"/>
	<path class="st2" d="M162.9,72c-2.1,0-4.2-0.3-6.1-0.9c-1.9-0.6-3.6-1.4-5.1-2.5c-1.5-1.1-2.7-2.4-3.8-3.9c-1-1.5-1.7-3.2-2.2-5.1
		h8.9c0.7,1.5,1.8,2.8,3.3,3.7c1.5,0.9,3.2,1.4,4.9,1.4c1.3,0,2.6-0.2,3.7-0.7c1.2-0.5,2.2-1.2,3.1-2.1c0.9-0.9,1.6-2,2.1-3.2
		c0.5-1.2,0.8-2.6,0.8-4v-1.2l-0.2-0.1c-0.6,0.7-1.3,1.3-2,1.9c-0.7,0.6-1.5,1.2-2.4,1.7c-0.9,0.5-1.8,0.9-2.8,1.2s-2.1,0.4-3.2,0.4
		c-2.4,0-4.7-0.4-6.8-1.3c-2.1-0.8-3.9-2-5.5-3.5c-1.6-1.5-2.8-3.3-3.7-5.3c-0.9-2-1.3-4.3-1.3-6.7c0-2.4,0.4-4.6,1.3-6.7
		c0.9-2,2.1-3.8,3.7-5.3c1.6-1.5,3.4-2.6,5.5-3.5c2.1-0.8,4.4-1.3,6.8-1.3c1.4,0,2.7,0.2,3.8,0.5c1.2,0.4,2.2,0.8,3.1,1.3
		c0.9,0.5,1.7,1.2,2.4,1.8c0.7,0.7,1.3,1.4,1.7,2l0.2-0.1v-4.6h7.5v28.9c0,2.4-0.4,4.7-1.3,6.7c-0.9,2-2.1,3.8-3.7,5.3
		c-1.6,1.5-3.5,2.7-5.6,3.5C167.8,71.6,165.4,72,162.9,72z M162.9,51.6c1.3,0,2.6-0.2,3.7-0.7c1.2-0.5,2.2-1.2,3.1-2.1
		c0.9-0.9,1.6-1.9,2.1-3.1c0.5-1.2,0.8-2.4,0.8-3.8c0-1.3-0.3-2.6-0.8-3.7c-0.5-1.2-1.2-2.2-2.1-3.1c-0.9-0.9-1.9-1.6-3.1-2.1
		c-1.2-0.5-2.4-0.7-3.7-0.7c-1.3,0-2.6,0.2-3.7,0.7c-1.2,0.5-2.2,1.2-3.1,2.1c-0.9,0.9-1.6,1.9-2.1,3.1c-0.5,1.2-0.8,2.4-0.8,3.7
		c0,1.3,0.3,2.6,0.8,3.8c0.5,1.2,1.2,2.2,2.1,3.1c0.9,0.9,1.9,1.6,3.1,2.1C160.3,51.4,161.6,51.6,162.9,51.6z"/>
	<path class="st2" d="M213.8,55.7h-0.1c-0.6,0.8-1.3,1.6-2.1,2.3c-0.8,0.7-1.6,1.4-2.6,1.9c-1,0.6-2,1-3.2,1.3
		c-1.2,0.3-2.4,0.5-3.8,0.5c-2.4,0-4.6-0.5-6.7-1.4c-2.1-0.9-3.9-2.2-5.5-3.8c-1.6-1.6-2.8-3.6-3.7-5.8c-0.9-2.2-1.4-4.6-1.4-7.3
		c0-2.6,0.5-5,1.4-7.3c0.9-2.2,2.2-4.1,3.7-5.8s3.4-2.9,5.5-3.8c2.1-0.9,4.3-1.4,6.7-1.4c1.3,0,2.6,0.2,3.8,0.5
		c1.2,0.3,2.2,0.8,3.2,1.3c1,0.6,1.8,1.2,2.6,1.9c0.8,0.7,1.5,1.5,2.1,2.3h0.1v-5h8.3v34.5h-8.3V55.7z M213.8,43.5
		c0-1.4-0.3-2.7-0.8-3.9c-0.5-1.2-1.2-2.3-2.1-3.2s-2-1.6-3.2-2.2s-2.6-0.8-4-0.8c-1.4,0-2.7,0.3-3.9,0.8s-2.3,1.3-3.2,2.2
		s-1.6,2-2.2,3.2c-0.5,1.2-0.8,2.5-0.8,3.9c0,1.4,0.3,2.7,0.8,4c0.5,1.3,1.3,2.3,2.2,3.2s2,1.6,3.2,2.2s2.5,0.8,3.9,0.8
		c1.4,0,2.8-0.3,4-0.8s2.3-1.3,3.2-2.2s1.6-2,2.1-3.2C213.5,46.2,213.8,44.9,213.8,43.5z"/>
	<path class="st2" d="M227.4,60.8V26.3h7.7V31h0.1c0.4-0.7,0.9-1.4,1.5-2.1c0.6-0.7,1.3-1.3,2-1.8c0.7-0.5,1.6-1,2.5-1.3
		c0.9-0.3,2-0.5,3.1-0.5c2.3,0,4.2,0.6,5.7,1.7c1.5,1.1,2.8,2.6,3.9,4.3c1.2-1.5,2.6-2.9,4.2-4.1c1.7-1.2,3.6-1.8,5.7-1.8
		c1.9,0,3.7,0.4,5.2,1.1c1.6,0.7,3,1.7,4.1,2.9c1.2,1.3,2,2.7,2.7,4.5c0.6,1.7,1,3.6,1,5.7v21.3h-8.3V39.5c0-0.8-0.2-1.6-0.5-2.4
		c-0.3-0.8-0.8-1.4-1.3-1.9c-0.6-0.5-1.2-1-2-1.3c-0.8-0.3-1.5-0.5-2.4-0.5c-0.8,0-1.6,0.2-2.4,0.5c-0.7,0.3-1.4,0.7-1.9,1.3
		c-0.6,0.5-1,1.2-1.3,1.9c-0.3,0.8-0.5,1.5-0.5,2.4v21.3h-8.3V39.5c0-1.7-0.6-3.1-1.8-4.3c-1.2-1.2-2.6-1.8-4.3-1.8
		c-0.8,0-1.6,0.2-2.4,0.5c-0.7,0.3-1.4,0.7-1.9,1.3c-0.6,0.5-1,1.2-1.3,1.9c-0.3,0.8-0.5,1.5-0.5,2.4v21.3H227.4z"/>
	<path class="st2" d="M318.2,43.5c0,0.7,0,1.3-0.1,1.9c-0.1,0.6-0.2,1.3-0.4,1.9h-27.6c0.8,1.9,2,3.5,3.6,4.7
		c1.7,1.2,3.6,1.8,5.8,1.8c1.5,0,3-0.3,4.3-0.9c1.3-0.6,2.5-1.5,3.5-2.5h9.2c-0.6,1.7-1.5,3.3-2.6,4.7c-1.1,1.4-2.4,2.6-3.9,3.6
		c-1.5,1-3.1,1.7-4.9,2.3c-1.8,0.5-3.6,0.8-5.5,0.8c-2.4,0-4.8-0.5-7-1.4s-4.3-2.3-6-3.9c-1.7-1.6-3.1-3.6-4.1-5.8s-1.5-4.6-1.5-7.1
		c0-2.6,0.5-5,1.5-7.3s2.3-4.1,4-5.8c1.7-1.6,3.7-2.9,6-3.8c2.3-0.9,4.7-1.4,7.3-1.4c2.5,0,4.9,0.5,7.2,1.4s4.2,2.2,5.9,3.9
		s3,3.6,4,5.8C317.7,38.6,318.2,41,318.2,43.5z M309.2,40.1c-0.7-2.1-1.9-3.8-3.6-5c-1.7-1.2-3.7-1.8-5.8-1.8
		c-2.1,0-4.1,0.6-5.8,1.8c-1.7,1.2-2.9,2.9-3.6,5H309.2z"/>
	<path class="st2" d="M342.3,37c0-0.5-0.1-1-0.4-1.5c-0.3-0.6-0.7-1.1-1.2-1.5c-0.5-0.5-1.1-0.8-1.8-1.1s-1.6-0.4-2.5-0.4
		c-0.8,0-1.5,0.1-2.2,0.3c-0.7,0.2-1.3,0.5-1.8,0.8c-0.5,0.3-0.9,0.7-1.3,1.2s-0.5,1-0.5,1.5c0,0.8,0.3,1.3,0.8,1.6
		c0.5,0.3,1.2,0.6,2.1,0.9l7.4,1.9c1.4,0.4,2.8,0.8,4.1,1.3s2.4,1.2,3.4,2c1,0.8,1.7,1.8,2.3,2.9c0.6,1.1,0.8,2.5,0.8,4.1
		c0,1.8-0.4,3.4-1.2,4.7s-1.9,2.5-3.3,3.4c-1.4,0.9-3,1.6-4.9,2.1c-1.9,0.5-3.9,0.7-6,0.7c-2.1,0-4.1-0.3-5.9-0.9
		c-1.8-0.6-3.4-1.4-4.8-2.4s-2.4-2.3-3.2-3.7c-0.8-1.4-1.2-3-1.2-4.7h8.2c0,0.6,0.2,1.1,0.6,1.6c0.4,0.5,0.9,1,1.5,1.5
		c0.6,0.4,1.3,0.8,2.2,1.1c0.8,0.3,1.7,0.4,2.6,0.4c1.9,0,3.5-0.3,4.8-1c1.3-0.7,2-1.6,2-2.8c0-0.8-0.3-1.4-0.9-1.7
		c-0.6-0.4-1.5-0.7-2.7-1l-7.3-1.8c-1.3-0.4-2.6-0.8-3.8-1.4c-1.2-0.6-2.3-1.3-3.2-2.1c-0.9-0.8-1.6-1.8-2.2-2.9
		c-0.5-1.1-0.8-2.4-0.8-3.8c0-1.8,0.4-3.4,1.2-4.7c0.8-1.3,1.8-2.5,3.1-3.4c1.3-0.9,2.8-1.6,4.6-2.1c1.8-0.5,3.6-0.7,5.6-0.7
		c2,0,3.8,0.3,5.5,0.9c1.7,0.6,3.2,1.4,4.4,2.5c1.2,1.1,2.2,2.3,2.9,3.7c0.7,1.4,1.1,2.9,1.1,4.6H342.3z"/>
</g>
</svg>
