<?xml version="1.0" encoding="utf-8"?>
<!-- Generator: Adobe Illustrator 26.3.1, SVG Export Plug-In . SVG Version: 6.00 Build 0)  -->
<svg version="1.1" id="Layer_2_00000005224768644017187800000011722365208459833489_"
	 xmlns="http://www.w3.org/2000/svg" xmlns:xlink="http://www.w3.org/1999/xlink" x="0px" y="0px" viewBox="0 0 129 129"
	 style="enable-background:new 0 0 129 129;" xml:space="preserve">
<style type="text/css">
	.st0{fill:#333333;}
	.st1{enable-background:new    ;}
	.st2{fill:#FFFFFF;}
</style>
<circle class="st0" cx="64.5" cy="64.5" r="64.5"/>
<g class="st1">
	<path class="st2" d="M17.7,70.9l23.2-25.2h-22V34.2h45.8L41.9,59.5h22.1v11.4H17.7z"/>
	<path class="st2" d="M69.5,70.9v-10h29c1.9,0,2.8-0.6,2.8-1.9v-0.1c0-1.3-0.9-1.9-2.8-1.9h-29v-8.8h29c1.9,0,2.8-0.6,2.8-1.9v-0.1
		c0-1.3-0.9-1.9-2.8-1.9h-29v-10h29.9c4.8,0,8.2,0.8,10.2,2.5c2,1.7,3,4.4,3,8.2v0.3c0,3.4-1.2,5.9-3.6,7.4c2.4,1.5,3.6,4,3.6,7.4
		v0.3c0,3.7-1,6.5-3,8.2s-5.4,2.5-10.2,2.5H69.5z"/>
</g>
<g class="st1">
	<path class="st2" d="M20.4,97.5c-0.5,0-0.9-0.2-1.3-0.5c-0.4-0.4-0.5-0.8-0.5-1.3c0-0.5,0.2-0.9,0.5-1.3s0.8-0.5,1.3-0.5
		s0.9,0.2,1.3,0.5c0.4,0.4,0.5,0.8,0.5,1.3c0,0.5-0.2,0.9-0.5,1.3C21.4,97.4,20.9,97.5,20.4,97.5z"/>
	<path class="st2" d="M32,101.9c-0.9,0-1.7-0.1-2.4-0.3c-0.8-0.2-1.5-0.6-2.1-1c-0.6-0.4-1.1-1-1.5-1.6c-0.4-0.6-0.7-1.3-0.9-2h3.6
		c0.3,0.6,0.7,1.1,1.3,1.5c0.6,0.4,1.3,0.6,2,0.6c0.5,0,1-0.1,1.5-0.3s0.9-0.5,1.2-0.8c0.4-0.4,0.6-0.8,0.8-1.3
		c0.2-0.5,0.3-1,0.3-1.6v-0.5l-0.1,0c-0.2,0.3-0.5,0.5-0.8,0.8c-0.3,0.2-0.6,0.5-1,0.7s-0.7,0.4-1.1,0.5c-0.4,0.1-0.8,0.2-1.3,0.2
		c-1,0-1.9-0.2-2.7-0.5c-0.8-0.3-1.6-0.8-2.2-1.4c-0.6-0.6-1.1-1.3-1.5-2.1c-0.4-0.8-0.5-1.7-0.5-2.7c0-1,0.2-1.9,0.5-2.7
		c0.4-0.8,0.9-1.5,1.5-2.1c0.6-0.6,1.4-1.1,2.2-1.4c0.8-0.3,1.8-0.5,2.7-0.5c0.6,0,1.1,0.1,1.5,0.2c0.5,0.1,0.9,0.3,1.3,0.5
		s0.7,0.5,1,0.7s0.5,0.5,0.7,0.8l0.1,0v-1.8h3v11.7c0,1-0.2,1.9-0.5,2.7c-0.4,0.8-0.8,1.5-1.5,2.1c-0.6,0.6-1.4,1.1-2.3,1.4
		S33,101.9,32,101.9z M32,93.6c0.5,0,1-0.1,1.5-0.3s0.9-0.5,1.2-0.8c0.4-0.4,0.6-0.8,0.8-1.2c0.2-0.5,0.3-1,0.3-1.5
		c0-0.5-0.1-1-0.3-1.5s-0.5-0.9-0.8-1.2c-0.4-0.4-0.8-0.6-1.2-0.8c-0.5-0.2-1-0.3-1.5-0.3c-0.5,0-1,0.1-1.5,0.3
		c-0.5,0.2-0.9,0.5-1.2,0.8c-0.4,0.4-0.6,0.8-0.8,1.2s-0.3,1-0.3,1.5c0,0.5,0.1,1.1,0.3,1.5c0.2,0.5,0.5,0.9,0.8,1.2
		c0.4,0.4,0.8,0.6,1.2,0.8S31.4,93.6,32,93.6z"/>
	<path class="st2" d="M52.5,95.3L52.5,95.3c-0.3,0.3-0.6,0.6-0.9,0.9c-0.3,0.3-0.7,0.6-1,0.8c-0.4,0.2-0.8,0.4-1.3,0.5
		s-1,0.2-1.5,0.2c-1,0-1.9-0.2-2.7-0.6c-0.8-0.4-1.6-0.9-2.2-1.5c-0.6-0.7-1.1-1.4-1.5-2.3c-0.4-0.9-0.6-1.9-0.6-2.9s0.2-2,0.6-2.9
		c0.4-0.9,0.9-1.7,1.5-2.3c0.6-0.7,1.4-1.2,2.2-1.5c0.8-0.4,1.8-0.6,2.7-0.6c0.5,0,1,0.1,1.5,0.2c0.5,0.1,0.9,0.3,1.3,0.5
		c0.4,0.2,0.7,0.5,1,0.8c0.3,0.3,0.6,0.6,0.8,0.9h0v-2h3.3v13.9h-3.3V95.3z M52.5,90.4c0-0.6-0.1-1.1-0.3-1.6s-0.5-0.9-0.9-1.3
		c-0.4-0.4-0.8-0.7-1.3-0.9s-1-0.3-1.6-0.3c-0.6,0-1.1,0.1-1.6,0.3s-0.9,0.5-1.3,0.9c-0.4,0.4-0.7,0.8-0.9,1.3s-0.3,1-0.3,1.6
		c0,0.6,0.1,1.1,0.3,1.6s0.5,0.9,0.9,1.3c0.4,0.4,0.8,0.7,1.3,0.9c0.5,0.2,1,0.3,1.6,0.3c0.6,0,1.1-0.1,1.6-0.3
		c0.5-0.2,0.9-0.5,1.3-0.9c0.4-0.4,0.7-0.8,0.9-1.3S52.5,90.9,52.5,90.4z"/>
	<path class="st2" d="M58,97.3V83.4h3.1v1.9h0c0.2-0.3,0.4-0.6,0.6-0.8s0.5-0.5,0.8-0.7s0.6-0.4,1-0.5c0.4-0.1,0.8-0.2,1.2-0.2
		c0.9,0,1.7,0.2,2.3,0.7s1.1,1,1.6,1.7c0.5-0.6,1-1.2,1.7-1.7c0.7-0.5,1.4-0.7,2.3-0.7c0.8,0,1.5,0.1,2.1,0.4s1.2,0.7,1.7,1.2
		c0.5,0.5,0.8,1.1,1.1,1.8c0.3,0.7,0.4,1.5,0.4,2.3v8.6h-3.4v-8.6c0-0.3-0.1-0.7-0.2-1s-0.3-0.6-0.5-0.8c-0.2-0.2-0.5-0.4-0.8-0.5
		s-0.6-0.2-1-0.2s-0.7,0.1-0.9,0.2c-0.3,0.1-0.6,0.3-0.8,0.5c-0.2,0.2-0.4,0.5-0.5,0.8s-0.2,0.6-0.2,1v8.6h-3.3v-8.6
		c0-0.7-0.2-1.3-0.7-1.7c-0.5-0.5-1.1-0.7-1.7-0.7c-0.3,0-0.7,0.1-0.9,0.2s-0.6,0.3-0.8,0.5s-0.4,0.5-0.5,0.8
		c-0.1,0.3-0.2,0.6-0.2,1v8.6H58z"/>
	<path class="st2" d="M94.7,90.4c0,0.3,0,0.5,0,0.8s-0.1,0.5-0.1,0.8H83.4c0.3,0.8,0.8,1.4,1.5,1.9s1.4,0.7,2.3,0.7
		c0.6,0,1.2-0.1,1.7-0.4c0.5-0.2,1-0.6,1.4-1H94c-0.2,0.7-0.6,1.3-1,1.9c-0.5,0.6-1,1-1.6,1.4c-0.6,0.4-1.2,0.7-2,0.9
		c-0.7,0.2-1.5,0.3-2.2,0.3c-1,0-1.9-0.2-2.8-0.6s-1.7-0.9-2.4-1.6c-0.7-0.7-1.3-1.4-1.7-2.3c-0.4-0.9-0.6-1.9-0.6-2.9
		c0-1.1,0.2-2,0.6-2.9c0.4-0.9,0.9-1.7,1.6-2.3c0.7-0.7,1.5-1.2,2.4-1.5c0.9-0.4,1.9-0.6,2.9-0.6c1,0,2,0.2,2.9,0.6
		c0.9,0.4,1.7,0.9,2.4,1.6c0.7,0.7,1.2,1.4,1.6,2.3C94.5,88.4,94.7,89.4,94.7,90.4z M91,89c-0.3-0.8-0.8-1.5-1.5-2
		c-0.7-0.5-1.5-0.7-2.4-0.7c-0.9,0-1.6,0.2-2.3,0.7c-0.7,0.5-1.2,1.2-1.5,2H91z"/>
	<path class="st2" d="M104.4,87.7c0-0.2-0.1-0.4-0.2-0.6c-0.1-0.2-0.3-0.4-0.5-0.6s-0.4-0.3-0.7-0.5s-0.6-0.2-1-0.2
		c-0.3,0-0.6,0-0.9,0.1s-0.5,0.2-0.7,0.3c-0.2,0.1-0.4,0.3-0.5,0.5c-0.1,0.2-0.2,0.4-0.2,0.6c0,0.3,0.1,0.5,0.3,0.7
		c0.2,0.1,0.5,0.2,0.9,0.3l3,0.8c0.6,0.1,1.1,0.3,1.6,0.5c0.5,0.2,1,0.5,1.4,0.8c0.4,0.3,0.7,0.7,0.9,1.2c0.2,0.5,0.3,1,0.3,1.7
		c0,0.7-0.2,1.4-0.5,1.9c-0.3,0.5-0.8,1-1.3,1.4c-0.6,0.4-1.2,0.7-2,0.8s-1.6,0.3-2.4,0.3c-0.8,0-1.6-0.1-2.4-0.3
		c-0.7-0.2-1.4-0.6-1.9-1s-1-0.9-1.3-1.5c-0.3-0.6-0.5-1.2-0.5-1.9h3.3c0,0.2,0.1,0.4,0.2,0.7c0.2,0.2,0.4,0.4,0.6,0.6
		s0.5,0.3,0.9,0.4c0.3,0.1,0.7,0.2,1.1,0.2c0.8,0,1.4-0.1,1.9-0.4c0.5-0.3,0.8-0.6,0.8-1.1c0-0.3-0.1-0.6-0.4-0.7
		c-0.2-0.1-0.6-0.3-1.1-0.4l-3-0.7c-0.5-0.1-1.1-0.3-1.5-0.6c-0.5-0.2-0.9-0.5-1.3-0.8s-0.7-0.7-0.9-1.2c-0.2-0.4-0.3-1-0.3-1.5
		c0-0.7,0.2-1.4,0.5-1.9c0.3-0.5,0.7-1,1.3-1.4s1.1-0.6,1.9-0.8c0.7-0.2,1.5-0.3,2.3-0.3s1.5,0.1,2.2,0.4c0.7,0.2,1.3,0.6,1.8,1
		s0.9,0.9,1.2,1.5c0.3,0.6,0.4,1.2,0.4,1.8H104.4z"/>
</g>
</svg>
