<?xml version="1.0" encoding="utf-8"?>
<!-- Generator: Adobe Illustrator 26.3.1, SVG Export Plug-In . SVG Version: 6.00 Build 0)  -->
<svg version="1.1" id="Layer_2_00000154390314810921032900000007520138421488982676_"
	 xmlns="http://www.w3.org/2000/svg" xmlns:xlink="http://www.w3.org/1999/xlink" x="0px" y="0px" viewBox="0 0 113 113"
	 style="enable-background:new 0 0 113 113;" xml:space="preserve">
<style type="text/css">
	.st0{fill:#333333;}
	.st1{enable-background:new    ;}
	.st2{fill:#FFFFFF;}
</style>
<rect class="st0" width="113" height="113"/>
<g class="st1">
	<path class="st2" d="M9.6,62.6l23.2-25.2h-22V25.9h45.8L33.8,51.1h22.1v11.4H9.6z"/>
	<path class="st2" d="M61.5,62.6v-10h29c1.9,0,2.8-0.6,2.8-1.9v-0.1c0-1.3-0.9-1.9-2.8-1.9h-29v-8.8h29c1.9,0,2.8-0.6,2.8-1.9v-0.1
		c0-1.3-0.9-1.9-2.8-1.9h-29v-10h29.9c4.8,0,8.2,0.8,10.2,2.5c2,1.7,3,4.4,3,8.2v0.3c0,3.4-1.2,5.9-3.6,7.4c2.4,1.5,3.6,4,3.6,7.4
		v0.3c0,3.7-1,6.5-3,8.2s-5.4,2.5-10.2,2.5H61.5z"/>
</g>
<g class="st1">
	<path class="st2" d="M12.4,89.2c-0.5,0-0.9-0.2-1.3-0.5c-0.4-0.4-0.5-0.8-0.5-1.3c0-0.5,0.2-0.9,0.5-1.3c0.4-0.4,0.8-0.5,1.3-0.5
		c0.5,0,0.9,0.2,1.3,0.5s0.5,0.8,0.5,1.3c0,0.5-0.2,0.9-0.5,1.3C13.3,89,12.9,89.2,12.4,89.2z"/>
	<path class="st2" d="M23.9,93.5c-0.9,0-1.7-0.1-2.4-0.3c-0.8-0.2-1.5-0.6-2.1-1s-1.1-1-1.5-1.6c-0.4-0.6-0.7-1.3-0.9-2h3.6
		c0.3,0.6,0.7,1.1,1.3,1.5s1.3,0.6,2,0.6c0.5,0,1-0.1,1.5-0.3c0.5-0.2,0.9-0.5,1.2-0.8c0.4-0.4,0.6-0.8,0.8-1.3
		c0.2-0.5,0.3-1,0.3-1.6v-0.5l-0.1,0c-0.2,0.3-0.5,0.5-0.8,0.8c-0.3,0.2-0.6,0.5-1,0.7c-0.4,0.2-0.7,0.4-1.1,0.5
		c-0.4,0.1-0.8,0.2-1.3,0.2c-1,0-1.9-0.2-2.7-0.5c-0.8-0.3-1.6-0.8-2.2-1.4c-0.6-0.6-1.1-1.3-1.5-2.1s-0.5-1.7-0.5-2.7
		c0-1,0.2-1.9,0.5-2.7c0.4-0.8,0.9-1.5,1.5-2.1c0.6-0.6,1.4-1.1,2.2-1.4c0.8-0.3,1.8-0.5,2.7-0.5c0.6,0,1.1,0.1,1.5,0.2
		c0.5,0.1,0.9,0.3,1.3,0.5s0.7,0.5,1,0.7c0.3,0.3,0.5,0.5,0.7,0.8l0.1,0v-1.8h3v11.7c0,1-0.2,1.9-0.5,2.7c-0.4,0.8-0.8,1.5-1.5,2.1
		c-0.6,0.6-1.4,1.1-2.3,1.4C25.9,93.3,24.9,93.5,23.9,93.5z M23.9,85.3c0.5,0,1-0.1,1.5-0.3c0.5-0.2,0.9-0.5,1.2-0.8
		c0.4-0.4,0.6-0.8,0.8-1.2c0.2-0.5,0.3-1,0.3-1.5c0-0.5-0.1-1-0.3-1.5c-0.2-0.5-0.5-0.9-0.8-1.2c-0.4-0.4-0.8-0.6-1.2-0.8
		c-0.5-0.2-1-0.3-1.5-0.3s-1,0.1-1.5,0.3c-0.5,0.2-0.9,0.5-1.2,0.8c-0.4,0.4-0.6,0.8-0.8,1.2s-0.3,1-0.3,1.5c0,0.5,0.1,1.1,0.3,1.5
		c0.2,0.5,0.5,0.9,0.8,1.2c0.4,0.4,0.8,0.6,1.2,0.8C22.9,85.2,23.4,85.3,23.9,85.3z"/>
	<path class="st2" d="M44.4,87L44.4,87c-0.3,0.3-0.6,0.6-0.9,0.9c-0.3,0.3-0.7,0.6-1,0.8c-0.4,0.2-0.8,0.4-1.3,0.5
		c-0.5,0.1-1,0.2-1.5,0.2c-1,0-1.9-0.2-2.7-0.6c-0.8-0.4-1.6-0.9-2.2-1.5c-0.6-0.7-1.1-1.4-1.5-2.3c-0.4-0.9-0.6-1.9-0.6-2.9
		s0.2-2,0.6-2.9c0.4-0.9,0.9-1.7,1.5-2.3c0.6-0.7,1.4-1.2,2.2-1.5s1.8-0.6,2.7-0.6c0.5,0,1,0.1,1.5,0.2c0.5,0.1,0.9,0.3,1.3,0.5
		c0.4,0.2,0.7,0.5,1,0.8s0.6,0.6,0.8,0.9h0v-2h3.3V89h-3.3V87z M44.4,82c0-0.6-0.1-1.1-0.3-1.6s-0.5-0.9-0.9-1.3
		c-0.4-0.4-0.8-0.7-1.3-0.9s-1-0.3-1.6-0.3c-0.6,0-1.1,0.1-1.6,0.3s-0.9,0.5-1.3,0.9c-0.4,0.4-0.7,0.8-0.9,1.3s-0.3,1-0.3,1.6
		c0,0.6,0.1,1.1,0.3,1.6s0.5,0.9,0.9,1.3c0.4,0.4,0.8,0.7,1.3,0.9c0.5,0.2,1,0.3,1.6,0.3c0.6,0,1.1-0.1,1.6-0.3
		c0.5-0.2,0.9-0.5,1.3-0.9c0.4-0.4,0.7-0.8,0.9-1.3S44.4,82.6,44.4,82z"/>
	<path class="st2" d="M50,89V75.1h3.1V77h0c0.2-0.3,0.4-0.6,0.6-0.8c0.2-0.3,0.5-0.5,0.8-0.7s0.6-0.4,1-0.5c0.4-0.1,0.8-0.2,1.2-0.2
		c0.9,0,1.7,0.2,2.3,0.7c0.6,0.5,1.1,1,1.6,1.7c0.5-0.6,1-1.2,1.7-1.7c0.7-0.5,1.4-0.7,2.3-0.7c0.8,0,1.5,0.1,2.1,0.4
		c0.6,0.3,1.2,0.7,1.7,1.2c0.5,0.5,0.8,1.1,1.1,1.8c0.3,0.7,0.4,1.5,0.4,2.3V89h-3.4v-8.6c0-0.3-0.1-0.7-0.2-1s-0.3-0.6-0.5-0.8
		c-0.2-0.2-0.5-0.4-0.8-0.5C64.7,78,64.3,78,64,78s-0.7,0.1-0.9,0.2s-0.6,0.3-0.8,0.5c-0.2,0.2-0.4,0.5-0.5,0.8
		c-0.1,0.3-0.2,0.6-0.2,1V89h-3.3v-8.6c0-0.7-0.2-1.3-0.7-1.7S56.5,78,55.8,78c-0.3,0-0.7,0.1-0.9,0.2s-0.6,0.3-0.8,0.5
		c-0.2,0.2-0.4,0.5-0.5,0.8c-0.1,0.3-0.2,0.6-0.2,1V89H50z"/>
	<path class="st2" d="M86.6,82c0,0.3,0,0.5,0,0.8c0,0.2-0.1,0.5-0.1,0.8H75.3c0.3,0.8,0.8,1.4,1.5,1.9s1.4,0.7,2.3,0.7
		c0.6,0,1.2-0.1,1.7-0.4s1-0.6,1.4-1h3.7c-0.2,0.7-0.6,1.3-1,1.9c-0.5,0.6-1,1-1.6,1.4c-0.6,0.4-1.2,0.7-2,0.9
		c-0.7,0.2-1.5,0.3-2.2,0.3c-1,0-1.9-0.2-2.8-0.6s-1.7-0.9-2.4-1.6c-0.7-0.7-1.3-1.4-1.7-2.3c-0.4-0.9-0.6-1.9-0.6-2.9
		c0-1.1,0.2-2,0.6-2.9c0.4-0.9,0.9-1.7,1.6-2.3c0.7-0.7,1.5-1.2,2.4-1.5s1.9-0.6,2.9-0.6c1,0,2,0.2,2.9,0.6c0.9,0.4,1.7,0.9,2.4,1.6
		s1.2,1.4,1.6,2.3C86.4,80.1,86.6,81,86.6,82z M82.9,80.6c-0.3-0.8-0.8-1.5-1.5-2c-0.7-0.5-1.5-0.7-2.4-0.7c-0.9,0-1.6,0.2-2.3,0.7
		c-0.7,0.5-1.2,1.2-1.5,2H82.9z"/>
	<path class="st2" d="M96.3,79.4c0-0.2-0.1-0.4-0.2-0.6c-0.1-0.2-0.3-0.4-0.5-0.6s-0.4-0.3-0.7-0.5c-0.3-0.1-0.6-0.2-1-0.2
		c-0.3,0-0.6,0-0.9,0.1c-0.3,0.1-0.5,0.2-0.7,0.3c-0.2,0.1-0.4,0.3-0.5,0.5c-0.1,0.2-0.2,0.4-0.2,0.6c0,0.3,0.1,0.5,0.3,0.7
		s0.5,0.2,0.9,0.3l3,0.8c0.6,0.1,1.1,0.3,1.6,0.5c0.5,0.2,1,0.5,1.4,0.8c0.4,0.3,0.7,0.7,0.9,1.2c0.2,0.5,0.3,1,0.3,1.7
		c0,0.7-0.2,1.4-0.5,1.9s-0.8,1-1.3,1.4c-0.6,0.4-1.2,0.7-2,0.8s-1.6,0.3-2.4,0.3c-0.8,0-1.6-0.1-2.4-0.3c-0.7-0.2-1.4-0.6-1.9-1
		c-0.5-0.4-1-0.9-1.3-1.5c-0.3-0.6-0.5-1.2-0.5-1.9h3.3c0,0.2,0.1,0.4,0.2,0.7s0.4,0.4,0.6,0.6s0.5,0.3,0.9,0.4
		c0.3,0.1,0.7,0.2,1.1,0.2c0.8,0,1.4-0.1,1.9-0.4c0.5-0.3,0.8-0.6,0.8-1.1c0-0.3-0.1-0.6-0.4-0.7c-0.2-0.1-0.6-0.3-1.1-0.4l-3-0.7
		c-0.5-0.1-1.1-0.3-1.5-0.6c-0.5-0.2-0.9-0.5-1.3-0.8s-0.7-0.7-0.9-1.2s-0.3-1-0.3-1.5c0-0.7,0.2-1.4,0.5-1.9c0.3-0.5,0.7-1,1.3-1.4
		c0.5-0.4,1.1-0.6,1.9-0.8c0.7-0.2,1.5-0.3,2.3-0.3c0.8,0,1.5,0.1,2.2,0.4s1.3,0.6,1.8,1s0.9,0.9,1.2,1.5c0.3,0.6,0.4,1.2,0.4,1.8
		H96.3z"/>
</g>
</svg>
